<svg xmlns="http://www.w3.org/2000/svg" width="321.872" height="235.325" viewBox="0 0 321.872 235.325">
  <g id="add" transform="translate(-7 -74)">
    <path id="Path_5" data-name="Path 5" d="M199.961,199.52a27.89,27.89,0,1,0-27.89-27.89A27.89,27.89,0,0,0,199.961,199.52Zm0-45.447A17.557,17.557,0,1,1,182.4,171.63,17.557,17.557,0,0,1,199.961,154.073Z" transform="translate(-58.461 -24.699)" fill="#fff"/>
    <path id="Path_6" data-name="Path 6" d="M421.063,322.771h-22.6v-22.6a5.167,5.167,0,0,0-10.333,0v22.6H366.167a5.167,5.167,0,1,0,0,10.333h21.959v21.959a5.167,5.167,0,0,0,10.333,0V333.1h22.6a5.167,5.167,0,1,0,0-10.333Z" transform="translate(-125.372 -78.269)" fill="#fff"/>
    <path id="Path_7" data-name="Path 7" d="M307.317,202.606V104.822A31.027,31.027,0,0,0,276.149,74H37.841A30.747,30.747,0,0,0,7,104.822V260.538a30.993,30.993,0,0,0,30.841,31.111H225.707a60.451,60.451,0,0,0,103.165-42.739A61.263,61.263,0,0,0,307.317,202.606ZM37.841,84.333H276.149a20.682,20.682,0,0,1,20.834,20.489v90.79a60.115,60.115,0,0,0-28.494-7.115,61.413,61.413,0,0,0-6.755.375l-43.285-30.648a5.18,5.18,0,0,0-6.619.531l-58.335,57.329L85.7,183.044a5.014,5.014,0,0,0-4.779.175L17.333,220.144V104.822A20.4,20.4,0,0,1,37.841,84.333Zm-20.507,176.2V232.09L83.72,193.539l61.99,30.286-58.476,57.49H37.841a20.65,20.65,0,0,1-20.507-20.777Zm84.642,20.777,114-112.105,32.22,22.8a60.432,60.432,0,0,0-30.776,89.308Zm166.43,17.616a50.053,50.053,0,1,1,50.053-50.052A50.053,50.053,0,0,1,268.405,298.931Z" transform="translate(0)" fill="#fff"/>
  </g>
</svg>
